<?xml version="1.0" standalone="no"?>
<!DOCTYPE svg PUBLIC "-//W3C//DTD SVG 20010904//EN"
 "http://www.w3.org/TR/2001/REC-SVG-20010904/DTD/svg10.dtd">
<svg version="1.0" xmlns="http://www.w3.org/2000/svg"
 width="1440.000000pt" height="1440.000000pt" viewBox="0 0 1440.000000 1440.000000"
 preserveAspectRatio="xMidYMid meet">
<metadata>
Created by potrace 1.14, written by Peter Selinger 2001-2017
</metadata>
<g transform="translate(0.000000,1440.000000) scale(0.100000,-0.100000)"
fill="#000000" stroke="none">
<path d="M435 14381 c-192 -55 -355 -217 -416 -413 -18 -57 -19 -118 -19
-1371 0 -1116 2 -1320 15 -1367 43 -163 164 -313 310 -385 l80 -40 -73 -36
c-40 -20 -97 -58 -127 -83 -65 -56 -144 -171 -176 -257 l-24 -64 -3 -1325 -3
-1325 25 -80 c55 -177 207 -338 369 -391 29 -9 56 -20 60 -24 4 -4 -24 -18
-62 -33 -175 -64 -312 -208 -370 -386 -21 -64 -21 -72 -21 -1390 l0 -1326 28
-81 c63 -179 191 -309 372 -374 l75 -28 -45 -12 c-180 -48 -351 -219 -411
-412 -18 -57 -19 -118 -19 -1371 0 -1452 -4 -1356 67 -1497 55 -109 151 -202
268 -260 l90 -45 4731 0 4731 0 89 45 c158 80 272 219 321 390 17 62 18 134
18 1365 0 1234 -1 1303 -18 1360 -52 169 -168 309 -316 383 l-83 42 1714 2
1713 3 65 23 c92 33 162 76 230 139 77 71 127 148 164 253 l31 85 3 1287 c3
1433 6 1367 -65 1508 -52 103 -170 221 -273 273 -144 72 135 67 -3455 67
l-3240 0 57 24 c133 54 249 166 312 300 64 135 61 58 61 1466 0 1438 5 1330
-72 1484 -40 81 -174 221 -233 246 -31 13 220 16 2170 20 l2205 5 62 21 c209
72 362 230 420 434 17 62 18 134 18 1365 0 1234 -1 1303 -18 1360 -64 207
-225 370 -426 429 -50 15 -537 16 -5450 15 -5081 0 -5400 -1 -5456 -18z"/>
</g>
</svg>
